<svg width="32" height="32" viewBox="0 0 32 32" fill="none" xmlns="http://www.w3.org/2000/svg">
  <!-- Background circle -->
  <circle cx="16" cy="16" r="16" fill="url(#gradient)"/>
  
  <!-- Document base -->
  <rect x="6" y="4" width="14" height="18" rx="2" fill="white" opacity="0.9"/>
  
  <!-- Document lines -->
  <rect x="8" y="7" width="10" height="1" fill="#6366f1" opacity="0.8"/>
  <rect x="8" y="9" width="8" height="1" fill="#6366f1" opacity="0.6"/>
  <rect x="8" y="11" width="9" height="1" fill="#6366f1" opacity="0.6"/>
  
  <!-- AI Brain/Neural network overlay -->
  <circle cx="22" cy="10" r="3" fill="white" opacity="0.9"/>
  <circle cx="24" cy="14" r="2" fill="white" opacity="0.7"/>
  <circle cx="20" cy="16" r="2" fill="white" opacity="0.7"/>
  
  <!-- Connection lines -->
  <path d="M22 10L24 14" stroke="#6366f1" stroke-width="1" opacity="0.8"/>
  <path d="M22 10L20 16" stroke="#6366f1" stroke-width="1" opacity="0.8"/>
  <path d="M24 14L20 16" stroke="#6366f1" stroke-width="1" opacity="0.8"/>
  
  <!-- Sparkle effect -->
  <path d="M26 6L27 7L26 8L25 7L26 6Z" fill="white" opacity="0.9"/>
  <path d="M28 12L28.5 12.5L28 13L27.5 12.5L28 12Z" fill="white" opacity="0.7"/>
  
  <defs>
    <linearGradient id="gradient" x1="0%" y1="0%" x2="100%" y2="100%">
      <stop offset="0%" style="stop-color:#6366f1;stop-opacity:1" />
      <stop offset="100%" style="stop-color:#8b5cf6;stop-opacity:1" />
    </linearGradient>
  </defs>
</svg>
